#!OML:ASF H:\MichaelJackson\Top Level 1\Subject 1\Session 1\male.ASF
:FULLY-SPECIFIED
:DEGREES
1333
root -5.67094 16.877 18.8506 -167.367 -204.778 -172.392
lowerback 1.37747 0.454151 -6.26759
upperback 2.44299 0.644339 -2.38977
thorax 1.7076 0.24501 1.05008
lowerneck -13.256 -5.4591 -1.29236
upperneck 25.0368 -7.98385 2.69563
head 10.3517 -3.42887 0.156624
rclavicle 3.89121e-014 -2.47487e-014
rhumerus -39.6967 22.0836 -84.2072
rradius 93.8371
rwrist -21.9379
rhand 10.4469 -14.1069
rfingers 7.12502
rthumb 35.5501 -40.5327
lclavicle 3.89121e-014 -2.47487e-014
lhumerus -83.4771 -14.1765 104.202
lradius 83.3515
lwrist 40.4584
lhand -21.3258 19.6475
lfingers 7.12502
lthumb 5.05976 49.5671
rfemur -57.0461 -5.5587 13.5469
rtibia 66.524
rfoot 25.4283 3.1516
rtoes 33.7298
lfemur -22.947 5.7634 -31.2467
ltibia 35.897
lfoot -23.6407 -7.43955
ltoes 15.6034
1334
root -5.6603 16.8383 18.8828 -167.308 -205.047 -171.977
lowerback 1.37063 0.457339 -6.55209
upperback 2.47227 0.6527 -2.46273
thorax 1.74071 0.244164 1.133
lowerneck -13.0634 -5.55793 -1.44415
upperneck 25.332 -8.09942 2.71184
head 10.4328 -3.48817 0.174925
rclavicle -9.74542e-014 6.13251e-014
rhumerus -39.3319 20.9386 -84.0903
rradius 93.2765
rwrist -23.5593
rhand 9.28607 -14.4534
rfingers 7.12502
rthumb 34.4489 -41.1364
lclavicle -9.74542e-014 6.13251e-014
lhumerus -83.8732 -14.0901 104.285
lradius 84.0257
lwrist 40.8065
lhand -22.1103 20.1801
lfingers 7.12502
lthumb 4.30222 50.1164
rfemur -56.2798 -5.69308 13.0297
rtibia 66.7918
rfoot 22.4284 4.42213
rtoes 28.6752
lfemur -22.862 6.15468 -31.5946
ltibia 36.2479
lfoot -23.9288 -8.56132
ltoes 17.0056
1335
root -5.65025 16.8055 18.9116 -167.235 -205.255 -171.612
lowerback 1.36482 0.484717 -6.81635
upperback 2.51584 0.693441 -2.49692
thorax 1.78542 0.258591 1.2445
lowerneck -12.958 -5.67469 -1.57244
upperneck 25.5683 -8.22962 2.6728
head 10.5062 -3.55884 0.165971
rclavicle -5.70885e-014 -2.60905e-015
rhumerus -39.0997 19.9623 -84.055
rradius 92.8367
rwrist -24.2324
rhand 6.45469 -14.6565
rfingers 7.12502
rthumb 31.7565 -41.9109
lclavicle -5.70885e-014 -2.60905e-015
lhumerus -84.1241 -13.9441 104.351
lradius 84.4166
lwrist 40.8351
lhand -22.7331 19.671
lfingers 7.12502
lthumb 3.70082 49.6186
rfemur -55.6789 -5.79604 12.6261
rtibia 66.9819
rfoot 20.279 4.71952
rtoes 22.7982
lfemur -22.7976 6.49661 -31.9072
ltibia 36.5188
lfoot -24.2156 -9.31744
ltoes 17.8468
1336
root -5.63911 16.7858 18.9408 -167.203 -205.914 -171.157
lowerback 1.55903 0.354075 -7.0382
upperback 2.57149 0.506176 -2.52262
thorax 1.74725 0.162285 1.3398
lowerneck -12.968 -5.79319 -1.76524
upperneck 25.8411 -8.35747 2.6638
head 10.6207 -3.62864 0.174037
rclavicle -2.31422e-015 1.65842e-015
rhumerus -39.0456 19.1648 -84.1798
rradius 92.4665
rwrist -23.8603
rhand 2.74058 -14.4386
rfingers 7.12502
rthumb 28.2126 -42.3351
lclavicle -2.31422e-015 1.65842e-015
lhumerus -84.381 -13.7739 104.389
lradius 84.9206
lwrist 40.7632
lhand -22.9428 19.8503
lfingers 7.12502
lthumb 3.49837 49.8014
rfemur -54.9288 -6.32994 12.2518
rtibia 67.05
rfoot 18.8391 4.4053
rtoes 18.9036
lfemur -22.5234 6.44808 -32.1787
ltibia 36.6991
lfoot -24.4602 -10.0808
ltoes 18.8681
1337
root -5.62928 16.7745 18.9624 -167.019 -206.019 -170.888
lowerback 1.54958 0.419898 -7.17579
upperback 2.55696 0.594159 -2.55107
thorax 1.73077 0.204965 1.38664
lowerneck -12.9335 -5.92943 -1.94624
upperneck 25.9261 -8.50967 2.67005
head 10.6586 -3.71215 0.185772
rclavicle -7.46685e-015 -2.67862e-014
rhumerus -39.0437 18.4179 -84.3257
rradius 92.156
rwrist -22.7006
rhand -1.05087 -13.9341
rfingers 7.12502
rthumb 24.5834 -42.3756
lclavicle -7.46685e-015 -2.67862e-014
lhumerus -84.4396 -13.6101 104.38
lradius 85.1418
lwrist 40.3501
lhand -23.1991 19.6429
lfingers 7.12502
lthumb 3.25087 49.5979
rfemur -54.7282 -6.43194 12.0648
rtibia 67.0748
rfoot 18.0526 3.85512
rtoes 19.3603
lfemur -22.5482 6.51481 -32.4196
ltibia 36.7962
lfoot -24.6153 -10.4041
ltoes 19.2854
